# xmcd CD database file
#
# Track frame offsets:
#	182
#	14010
#	26472
#	39420
#	53025
#	64377
#	77395
#	89442
#	102892
#	115940
#	129085
#	141307
#	154385
#	167120
#	180632
#	192862
#	206322
#	220617
#	232272
#	247102
#	259147
#	272320
#
# Disc length: 3824 seconds
#
# Revision: 4
# Processed by: cddbd v1.5.2PL0 Copyright (c) Steve Scherf et al.
# Submitted via: CDex 1.51
#
DISCID=310eee16
DTITLE=Frankie Laine - The Frankie Laine Collection
DYEAR=1961
DGENRE=Jazz
TTITLE0=That's My Desire 
TTITLE1=On the Sunny Side of the Street 
TTITLE2=Black and Blue 
TTITLE3=It Only Happens Once 
TTITLE4=All of Me 
TTITLE5=Mam'selle 
TTITLE6=Put Yourself in My Place 
TTITLE7=Two Loves Have I 
TTITLE8=Shine 
TTITLE9=We'll Be Together Again 
TTITLE10=That Ain't Right 
TTITLE11=But Beatiful (mono)
TTITLE12=Nevertheless (I'm in Love With You) 
TTITLE13=Georgia on My Mind 
TTITLE14=God Bless the Child 
TTITLE15=That Lucky Old Sun 
TTITLE16=Satan Wears a Satin Gown 
TTITLE17=Mule Train  LIKE Rawhide 1st version
TTITLE18=Swamp Girl 
TTITLE19=The Cry of the Wild Goose
TTITLE20=Music, Maestro, Please 
TTITLE21=I'm Gonna Live Till I Die
EXTD=YEAR: 1961
EXTT0=
EXTT1=
EXTT2=
EXTT3=
EXTT4=
EXTT5=
EXTT6=
EXTT7=
EXTT8=
EXTT9=
EXTT10=
EXTT11=
EXTT12=
EXTT13=
EXTT14=
EXTT15=
EXTT16=
EXTT17=
EXTT18=
EXTT19=
EXTT20=
EXTT21=
PLAYORDER=
